<?xml version="1.0" encoding="UTF-8" standalone="no"?>
<svg
   xmlns:dc="http://purl.org/dc/elements/1.1/"
   xmlns:cc="http://creativecommons.org/ns#"
   xmlns:rdf="http://www.w3.org/1999/02/22-rdf-syntax-ns#"
   xmlns:svg="http://www.w3.org/2000/svg"
   xmlns="http://www.w3.org/2000/svg"
   id="svg11316"
   version="1.1"
   viewBox="0 0 138.61565 67.295998"
   height="67.295998mm"
   width="138.61565mm">
  <defs
     id="defs11310">
    <clipPath
       id="clip0">
      <rect
         x="0"
         y="0"
         width="1280"
         height="720"
         id="rect11335" />
    </clipPath>
  </defs>
  <metadata
     id="metadata11313">
    <rdf:RDF>
      <cc:Work
         rdf:about="">
        <dc:format>image/svg+xml</dc:format>
        <dc:type
           rdf:resource="http://purl.org/dc/dcmitype/StillImage" />
        <dc:title></dc:title>
      </cc:Work>
    </rdf:RDF>
  </metadata>
  <g
     transform="translate(-28.145438,-51.811152)"
     id="layer1">
    <path
       style="fill:none;fill-rule:evenodd;stroke:#000000;stroke-width:0.35277691;stroke-miterlimit:8"
       d="m 28.74509,52.354941 c 4.695825,0.519297 12.241741,-0.493607 18.538031,0 6.296289,0.49358 12.419012,0.599281 18.538031,0 6.119018,-0.599308 8.143875,-0.368089 13.045281,0 4.901406,0.368088 10.586508,0.01572 19.911223,0 9.324714,-0.01574 9.285814,0.752951 18.538034,0 9.25221,-0.752978 9.07124,0.283712 14.41846,0 5.34723,-0.283739 9.68534,-0.430239 15.79166,0 6.10632,0.430239 10.5537,-0.153406 18.53803,0 0.47519,3.494352 -0.56621,11.106229 0,16.536458 0.56647,5.430282 0.53631,8.442563 0,15.874973 -0.53631,7.43241 -0.71279,7.40172 0,14.55208 0.71279,7.150368 0.67628,12.932838 0,19.182288 -8.09281,0.76862 -12.5259,0.33973 -18.53803,0 -6.01213,-0.33972 -11.08922,0.71041 -17.16484,0 -6.07537,-0.7104 -9.23555,-0.48762 -13.04528,0 -3.80974,0.48763 -8.56642,0.254 -14.41847,0 -5.851794,-0.254 -12.800548,-0.39396 -19.911225,0 -7.110412,0.39423 -10.001779,0.34396 -17.164843,0 -7.163065,-0.34369 -15.222538,0.18521 -19.911219,0 -4.688416,-0.18494 -11.86815,-0.12461 -17.164843,0 -0.823913,-5.84491 0.559593,-8.6524 0,-17.19791 -0.559594,-8.545508 -0.570177,-10.420088 0,-16.536458 0.570177,-6.116373 0.738187,-11.424443 0,-16.536432 -0.737923,-5.11204 -0.175948,-10.732611 0,-15.874999 z"
       stroke-miterlimit="8"
       id="path11342" />
  </g>
</svg>
