<?xml version="1.0" encoding="UTF-8" standalone="no"?>
<svg
   xmlns:dc="http://purl.org/dc/elements/1.1/"
   xmlns:cc="http://creativecommons.org/ns#"
   xmlns:rdf="http://www.w3.org/1999/02/22-rdf-syntax-ns#"
   xmlns:svg="http://www.w3.org/2000/svg"
   xmlns="http://www.w3.org/2000/svg"
   id="svg11370"
   version="1.1"
   viewBox="0 0 138.61565 67.295998"
   height="67.295998mm"
   width="138.61565mm">
  <defs
     id="defs11364">
    <clipPath
       id="clip0">
      <rect
         x="0"
         y="0"
         width="1280"
         height="720"
         id="rect11397" />
    </clipPath>
  </defs>
  <metadata
     id="metadata11367">
    <rdf:RDF>
      <cc:Work
         rdf:about="">
        <dc:format>image/svg+xml</dc:format>
        <dc:type
           rdf:resource="http://purl.org/dc/dcmitype/StillImage" />
        <dc:title></dc:title>
      </cc:Work>
    </rdf:RDF>
  </metadata>
  <g
     transform="translate(-26.633534,-52.567107)"
     id="layer1">
    <path
       style="fill:none;fill-rule:evenodd;stroke:#000000;stroke-width:0.35277691;stroke-miterlimit:8"
       d="m 27.233186,53.110896 c 4.695825,0.519297 12.241741,-0.493607 18.538031,0 6.296289,0.49358 12.419012,0.599281 18.538031,0 6.119018,-0.599308 8.143875,-0.368089 13.045281,0 4.901406,0.368088 10.586508,0.01572 19.911218,0 9.324713,-0.01574 9.285813,0.752951 18.538033,0 9.25221,-0.752978 9.07124,0.283712 14.41847,0 5.34723,-0.283739 9.68533,-0.430239 15.79165,0 6.10632,0.430239 10.5537,-0.153406 18.53803,0 0.4752,3.494352 -0.5662,11.106229 0,16.536458 0.56648,5.430282 0.53631,8.442563 0,15.874973 -0.53631,7.43241 -0.71278,7.401719 0,14.552083 0.71279,7.15036 0.67628,12.93283 0,19.18229 -8.09281,0.76862 -12.5259,0.33973 -18.53803,0 -6.01212,-0.33972 -11.08921,0.71041 -17.16484,0 -6.07536,-0.7104 -9.23555,-0.48763 -13.04528,0 -3.80974,0.48763 -8.56642,0.254 -14.41847,0 -5.85179,-0.254 -12.800542,-0.39396 -19.911219,0 -7.110412,0.39423 -10.001779,0.34396 -17.164843,0 -7.163065,-0.34369 -15.222538,0.18521 -19.911219,0 -4.688416,-0.18494 -11.86815,-0.12462 -17.164843,0 -0.823913,-5.84491 0.559593,-8.6524 0,-17.19791 -0.559594,-8.545517 -0.570177,-10.42009 0,-16.536463 0.570177,-6.116373 0.738187,-11.424443 0,-16.536432 -0.737923,-5.11204 -0.175948,-10.732611 0,-15.874999 z"
       stroke-miterlimit="8"
       id="path11404" />
    <path
       style="fill:#ffffff;fill-rule:evenodd;stroke-width:0.26458332"
       d="m 32.789436,74.806702 c 7.181585,0.963084 11.985624,0.02249 19.413008,0 7.427118,-0.02249 10.527241,-0.805127 18.142743,0 7.615502,0.805127 10.803467,-0.144991 20.682744,0 9.879279,0.144992 11.374699,-0.679714 18.143009,0 6.76804,0.679715 11.41439,0.316442 18.14274,0 6.72836,-0.316441 23.86912,1.283494 32.47575,0 -0.14419,5.916613 0.60722,8.738129 0,12.7 -5.41681,0.738981 -14.48329,-0.743479 -18.14274,0 -3.65972,0.743479 -13.81072,0.841375 -19.41301,0 -5.60229,-0.841375 -14.55261,0.646906 -19.41274,0 -4.860132,-0.646906 -14.72274,-0.774171 -20.683009,0 -5.960004,0.774171 -9.30275,0.308769 -15.602744,0 -6.299993,-0.308769 -12.893939,0.700881 -16.872743,0 -3.979069,-0.700881 -10.002573,-0.138642 -16.873008,0 -0.100013,-3.632994 0.07064,-7.124435 0,-12.7 z"
       id="path11406" />
    <path
       style="fill:none;fill-rule:evenodd;stroke:#000000;stroke-width:0.35277691;stroke-miterlimit:8"
       d="m 32.789436,74.806702 c 8.909314,-0.663046 11.513343,0.813329 18.143008,0 6.6294,-0.813329 15.334191,-0.644525 19.412743,0 4.078552,0.644525 9.017,-0.401108 14.332744,0 5.316008,0.401109 11.154039,-0.806185 16.873009,0 5.7187,0.806186 14.35444,-0.521493 18.14274,0 3.78857,0.521494 9.50384,0.662252 14.33301,0 4.82891,-0.662252 19.16906,0.110067 25.76274,0 -0.19473,5.167313 -0.3294,7.429236 0,12.7 -9.0461,-1.000919 -10.95745,-0.785548 -20.68274,0 -9.72555,0.785548 -11.03789,0.437621 -18.14301,0 -7.10485,-0.437621 -9.91552,-0.355864 -14.33274,0 -4.41748,0.355865 -11.736918,-0.110596 -20.683009,0 -8.945827,0.110596 -9.155642,0.236008 -18.142744,0 -8.987102,-0.236008 -14.380104,-0.205317 -19.413008,0 -5.032639,0.205317 -11.228387,-0.586846 -15.602743,0 0.433916,-2.721239 0.238389,-7.132637 0,-12.7 z"
       stroke-miterlimit="8"
       id="slider_movementSpeed" />
    <path
       style="fill:#ffffff;fill-rule:evenodd;stroke-width:0.26458332"
       d="m 73.270685,98.619202 c 7.702021,-0.213254 10.034852,-0.666485 17.399,0 7.364148,0.66675 10.158415,-0.231775 18.848915,0 0.39264,3.666328 -0.22701,7.081048 0,9.260418 -3.72322,0.11245 -12.648669,-0.25559 -17.036519,0 -4.38785,0.25559 -15.076488,-0.0617 -19.211396,0 -0.0063,-4.06162 -0.458523,-5.52027 0,-9.260418 z"
       id="path11410" />
    <path
       style="fill:none;fill-rule:evenodd;stroke:#000000;stroke-width:0.35277691;stroke-miterlimit:8"
       d="m 73.270685,98.619202 c 5.05751,0.631031 10.653712,-0.33946 17.761479,0 7.107767,0.33946 12.990516,-0.838729 18.486436,0 0.0653,4.138878 -0.35348,5.972438 0,9.260418 -4.28307,0.79613 -10.296524,-0.20294 -17.761478,0 -7.464954,0.20293 -14.247018,-0.16537 -18.486437,0 -0.244475,-4.09363 0.126206,-5.68166 0,-9.260418 z"
       stroke-miterlimit="8"
       id="movementSpeed" />
  </g>
</svg>
